<svg width="142" height="53" viewBox="0 0 142 53" fill="none" xmlns="http://www.w3.org/2000/svg">
<path d="M84.0294 3.42274C84.1034 3.46574 84.1674 3.52374 84.2174 3.59374C84.2664 3.66374 84.3004 3.74374 84.3154 3.82774C84.3304 3.91174 84.3274 3.99874 84.3054 4.08174C84.2834 4.16474 84.2444 4.24174 84.1894 4.30774C81.5054 7.58174 80.0924 11.4237 79.9484 15.8327C79.9314 16.3727 79.6944 16.6657 79.2364 16.7137C79.0944 16.7297 78.9514 16.6917 78.8334 16.6077C76.1894 14.7307 73.9054 14.2517 70.4314 14.2477C64.7844 14.2417 59.0464 14.2477 53.2154 14.2647C52.7724 14.2647 52.5484 14.4877 52.5464 14.9337L52.4824 36.2937C52.4794 36.7737 52.2384 37.0137 51.7574 37.0137L39.8104 37.0277C39.4994 37.0277 39.2004 36.9037 38.9804 36.6837C38.7604 36.4637 38.6364 36.1647 38.6364 35.8537C38.6284 25.3287 38.6264 14.8077 38.6324 4.29074C38.6354 3.52574 38.7294 2.67074 38.9164 1.72774C38.9444 1.57774 39.0194 1.45774 39.1414 1.36774C39.6134 1.00374 40.2124 0.81974 40.9384 0.81674C51.6504 0.78874 62.3634 0.76974 73.0774 0.76174C77.6144 0.75774 80.3774 1.32974 84.0294 3.42274Z" fill="#D36362"/>
<path d="M54.2421 39.383C54.7761 39.394 55.0431 39.667 55.0431 40.201L55.0561 52.688C55.0561 52.835 54.9831 52.908 54.8361 52.908C42.3001 52.916 29.7661 52.915 17.2351 52.904C6.89614 52.891 0.316141 48.599 0.295141 37.481C0.278141 26.004 0.279142 14.525 0.299142 3.04599C0.302142 1.59399 1.08114 0.857994 2.63814 0.837994C6.23714 0.789994 9.81914 0.778995 13.3831 0.803995C13.8351 0.806995 14.0611 1.034 14.0611 1.486C14.0501 11.689 14.0531 21.932 14.0691 32.214C14.0821 37.396 14.3321 39.328 19.9081 39.273C31.3821 39.163 42.8271 39.199 54.2421 39.383Z" fill="#1E1E24"/>
<path d="M96.7703 18.5368C97.1303 20.9058 99.3043 21.4558 101.372 21.4778C109.304 21.5538 117.367 21.2828 125.278 21.6638C138.087 22.2828 146.108 35.2648 138.138 46.2858C134.303 51.5868 127.825 52.8918 121.711 52.8998C109.039 52.9198 96.3903 52.9208 83.7633 52.9038C83.7323 52.9038 83.7013 52.8938 83.6763 52.8748C83.6513 52.8558 83.6323 52.8288 83.6243 52.7988C83.6153 52.7688 83.6173 52.7358 83.6283 52.7068C83.6393 52.6778 83.6603 52.6528 83.6873 52.6358C86.8483 50.6608 90.4373 48.3858 92.7463 45.7928C94.1163 44.2588 95.4303 42.3988 96.6873 40.2128C97.0543 39.5718 97.7673 39.2508 98.8273 39.2508C106.623 39.2508 114.418 39.2448 122.212 39.2338C127.758 39.2258 127.89 31.6408 121.466 31.7128C109.649 31.8398 101.589 31.9708 94.6703 30.8608C90.4073 30.1788 87.3143 28.5598 84.9083 24.8948C82.0483 20.5348 81.1283 14.6028 83.4083 9.79777C85.2003 6.02277 88.4383 2.74677 92.4503 1.40777C93.6623 1.00377 95.5353 0.800766 98.0683 0.797766C111.497 0.788766 124.874 0.788766 138.198 0.797766C138.367 0.797766 138.528 0.864765 138.647 0.983765C138.766 1.10277 138.833 1.26476 138.833 1.43276L138.846 12.9578C138.846 13.8028 138.424 14.2258 137.579 14.2288C125.492 14.2568 113.539 14.2588 101.72 14.2328C98.7283 14.2278 96.2323 15.0118 96.7703 18.5368Z" fill="#1E1E24"/>
<path d="M58.0644 38.9902C68.3314 38.4652 80.3774 41.7742 83.8774 28.4952C83.9034 28.3952 83.9554 28.3032 84.0294 28.2302C84.1024 28.1572 84.1944 28.1042 84.2944 28.0792C84.3944 28.0532 84.5004 28.0542 84.5994 28.0832C84.6994 28.1122 84.7894 28.1662 84.8604 28.2412C86.4794 29.9392 88.3994 31.2732 90.6234 32.2452C92.2544 32.9612 94.2804 33.2322 96.0894 33.6812C96.2154 33.7132 96.3334 33.7722 96.4354 33.8532C96.5374 33.9342 96.6214 34.0362 96.6814 34.1512C96.7414 34.2672 96.7764 34.3942 96.7834 34.5242C96.7904 34.6542 96.7704 34.7842 96.7244 34.9062C92.3004 46.5202 83.6784 51.6642 71.8054 52.5962C67.6414 52.9242 63.4654 53.0172 59.2764 52.8762C58.2854 52.8422 57.4964 53.0372 57.4924 51.6182C57.4754 47.5622 57.4764 43.5502 57.4964 39.5842C57.4994 39.2072 57.6884 39.0102 58.0644 38.9902Z" fill="#D36362"/>
</svg>
